<?xml version="1.0" encoding="UTF-8" standalone="no"?>
<svg
   xmlns:dc="http://purl.org/dc/elements/1.1/"
   xmlns:cc="http://creativecommons.org/ns#"
   xmlns:rdf="http://www.w3.org/1999/02/22-rdf-syntax-ns#"
   xmlns:svg="http://www.w3.org/2000/svg"
   xmlns="http://www.w3.org/2000/svg"
   version="1.1"
   id="svg4722"
   viewBox="0 0 744.09448819 1052.3622047"
   height="297mm"
   width="210mm">
  <defs
     id="defs4724" />
  <metadata
     id="metadata4727">
    <rdf:RDF>
      <cc:Work
         rdf:about="">
        <dc:format>image/svg+xml</dc:format>
        <dc:type
           rdf:resource="http://purl.org/dc/dcmitype/StillImage" />
        <dc:title></dc:title>
      </cc:Work>
    </rdf:RDF>
  </metadata>
  <g
     id="layer1">
    <rect
       y="281.0524"
       x="69.402153"
       height="480"
       width="640"
       id="rect4668"
       style="opacity:1;fill:#99ccff;fill-opacity:1;stroke:none;stroke-width:0.625;stroke-miterlimit:4;stroke-dasharray:none;stroke-opacity:0.4822335" />
    <path
       id="path4544-4"
       d="m 189.26869,357.65964 140,20 40,80 0,110.00002 -139.4791,27.5583 -210.520904,-37.5583 0,-170.00002 z"
       style="fill:#009900;fill-opacity:1;fill-rule:evenodd;stroke:none;stroke-width:1px;stroke-linecap:butt;stroke-linejoin:miter;stroke-opacity:1" />
    <path
       id="path4546-9"
       d="m 319.26869,387.65964 40,70 -128.5459,3.0521 -33.5187,-90.9875 z"
       style="fill:#333333;fill-rule:evenodd;stroke:none;stroke-width:1px;stroke-linecap:butt;stroke-linejoin:miter;stroke-opacity:1" />
    <path
       id="path4548-0"
       d="m 184.26869,367.65964 35,95 -75,0 -3.7792,-88.1687 z"
       style="fill:#333333;fill-rule:evenodd;stroke:none;stroke-width:1px;stroke-linecap:butt;stroke-linejoin:miter;stroke-opacity:1" />
    <circle
       r="12.5"
       cy="567.30573"
       cx="247.98961"
       id="path4550-9"
       style="opacity:1;fill:#ffffff;fill-opacity:1;stroke:none;stroke-width:0.625;stroke-miterlimit:4;stroke-dasharray:none;stroke-opacity:0.4822335" />
    <ellipse
       ry="10.363534"
       rx="10.058325"
       cy="552.11713"
       cx="354.41656"
       id="path4550-6-9"
       style="opacity:1;fill:#ffffff;fill-opacity:1;stroke:none;stroke-width:0.625;stroke-miterlimit:4;stroke-dasharray:none;stroke-opacity:0.4822335" />
    <path
       id="path4567-7"
       d="m 269.26869,582.65966 70,-15 -6.8313,-94.15632 c -36.1425,-6.5452 -45.0325,0.5358 -59.6228,4.7667 z"
       style="fill:#333333;fill-opacity:1;fill-rule:evenodd;stroke:none;stroke-width:1px;stroke-linecap:butt;stroke-linejoin:miter;stroke-opacity:1" />
    <path
       id="path5500-1-1-8"
       d="m 316.29259,675.76646 -11.9375,19.875 c 25.7001,12.8797 54.7022,20.125 85.4063,20.125 0.5109,0 1.0212,-0.027 1.5313,-0.031 l -15,-19.9688 -60.0001,-20 z"
       style="fill:#0066cc;fill-opacity:1;stroke:none" />
    <path
       id="path4569-7"
       d="m 237.17859,405.95054 c 8.0726,18.3438 23.0162,30.8384 39.1908,42.285 -11.6651,-16.9056 -24.1962,-32.0709 -39.1908,-42.285 z"
       style="fill:#4d4d4d;fill-rule:evenodd;stroke:none;stroke-width:1px;stroke-linecap:butt;stroke-linejoin:miter;stroke-opacity:1" />
    <path
       id="path5500-1-5-8"
       d="m 425.47249,562.40386 -170,50 -25.0625,22.5625 c 19.1394,25.8542 44.6519,46.6964 74.2187,60.2187 l 5.8438,2.2188 115,-135 z"
       style="fill:#ff9933;fill-opacity:1;stroke:none" />
    <path
       id="path5622-4"
       d="m 490.53959,660.27726 -45,5 -20,25 -10,20 15,0 20,-35 35,-5 z"
       style="fill:#171717;fill-opacity:1;stroke:none" />
    <path
       id="path5613-4"
       d="m 395.53959,695.27726 c -4.6488,6.1841 -3.3712,11.2571 5,15 35.0194,-11.0788 62.295,-21.7306 90,-45 14.6667,-15.6128 26.5008,-23.4163 40,-35 l -10,-5 c -14.6878,11.6146 -25,21 -42,36 -27.3127,24.5606 -54.0861,27.0535 -83,34 z"
       style="fill:#000000;fill-opacity:1;stroke:none" />
    <path
       id="path5593-9-8"
       d="m 492.85409,622.97106 c 0.4659,48.0833 62.6855,20.3062 19.6371,-2.3619 z"
       style="fill:#ff794b;stroke:none" />
    <path
       id="path5593-91"
       d="m 405.53959,685.27726 c 12.4812,46.4411 90,-15 30,-10 z"
       style="fill:#ff794b;stroke:none" />
    <path
       id="path4569-0-2"
       d="m 229.00079,420.19984 c 6.4789,13.4434 18.4724,22.6002 31.4538,30.9889 -9.3623,-12.3894 -19.4194,-23.5034 -31.4538,-30.9889 z"
       style="fill:#4d4d4d;fill-rule:evenodd;stroke:none;stroke-width:1px;stroke-linecap:butt;stroke-linejoin:miter;stroke-opacity:1" />
    <path
       id="path5583-2"
       d="m 491.05509,633.59556 c -0.213,-0.6863 -4.4991,-44.4045 -4.7435,-48.383 -0.1918,-3.1227 -0.772,0.065 -1.0437,-5.3843 -0.1265,-2.5374 -6.4175,-2.9886 -9.7283,-4.551 -5.2784,-2.491 -6.4923,-4.4722 -22.9689,-6.6426 -9.7086,-1.2789 -17.7785,2.6958 -22.0311,1.6426 -3.6204,-0.2821 -30.0758,21.8473 -33.145,24.6781 l -32.0108,29.5261 c -19.8442,20.7958 -49.8442,25.7958 -60.3987,0.1584 l -2.0518,-2.4887 c -3.8973,-4.7272 -5.8248,-8.7748 -6.5095,-13.6693 -0.2016,-1.4413 -0.3112,-2.6642 -0.2435,-2.7176 0.068,-0.053 9.0849,-3.4503 20.0381,-7.5488 l 19.9149,-7.4517 0,-19.2891 0,-19.2892 1.7549,0.6093 c 5.3653,1.8625 14.7071,3.8024 22.0514,4.5789 4.5297,0.479 16.2466,0.4774 20.7543,0 15.9127,-1.6949 30.4646,-6.4808 43.1196,-14.1811 l 3.2897,-2.0018 31.6567,4.8662 c 31.2291,4.8004 31.6917,4.8816 34.2418,6.0094 8.1055,3.5848 13.8052,9.6938 16.5991,17.7911 0.7408,2.1472 14.8467,53.6631 14.8467,54.2218 0,0.142 -2.3691,0.2625 -5.2648,0.2679 -5.7087,0.011 -8.7806,0.446 -13.2004,1.8711 -4.7797,1.5413 -9.9192,4.1207 -13.3516,6.7009 -1.0235,0.7695 -1.4858,0.9687 -1.5756,0.6791 l 0,0 z"
       style="fill:#ff9933;fill-opacity:1;stroke:none" />
    <path
       id="path4569-0-9-3"
       d="m 258.36909,408.22494 c 6.4789,13.4434 18.4724,22.6002 31.4538,30.9889 -9.3623,-12.3894 -19.4194,-23.5034 -31.4538,-30.9889 z"
       style="fill:#4d4d4d;fill-rule:evenodd;stroke:none;stroke-width:1px;stroke-linecap:butt;stroke-linejoin:miter;stroke-opacity:1" />
    <path
       id="path5585-8"
       d="m 362.56279,687.93566 c -46.2395,-8.2136 -44.0083,-7.7767 -50.0692,-9.8045 -6.4942,-2.1728 -11.8901,-4.9844 -22.4448,-11.695 l -9.28011,-5.9002 -13.54745,-13.8122 c -16.18874,-16.5052 -20.87581,-22.5016 -24.12269,-30.8617 -2.08222,-5.3613 -2.45461,-7.3651 -2.44662,-13.1647 0.007,-5.4235 0.0616,-5.753 1.61606,-9.846 2.07082,-5.4524 3.21027,-7.6692 5.63056,-10.9542 3.46819,-4.7073 9.58999,-9.1204 18.19688,-13.1176 3.58234,-1.6637 6.50187,-2.3659 37.76557,-9.0833 18.6357,-4.0042 34.3201,-7.2811 34.8542,-7.2822 l 0.9712,0 -0.01,19.0997 -0.01,19.0997 -20.1013,7.5118 -20.1013,7.5117 0.2968,3.0632 c 0.5241,5.4103 2.7114,10.3677 6.6571,15.088 3.8638,7.3543 -5.4685,-3.7836 5.4302,5.6986 6.9804,6.0732 15.2164,11.8182 26.2517,18.312 l 6.8365,4.023 53.7666,9.7745 53.7665,9.7746 -6.865,2.5054 c -22.2537,8.1215 -30.6036,12.3002 -38.0576,19.0456 -1.4357,1.2992 -2.9683,2.3395 -3.4057,2.3116 -0.4375,-0.028 -19.1506,-3.311 -41.5846,-7.296 z"
       style="fill:#ff9933;fill-opacity:1;stroke:none" />
    <path
       id="path5589-5"
       d="m 250.53954,630.27726 c 20.5983,22.7533 53.41285,38.526 85.00005,55 -31.3196,-14.3518 -67.37714,-22.3862 -85.00005,-55 z"
       style="opacity:0.40506334;fill:#000000;fill-opacity:1;stroke:none" />
    <path
       id="path5591-6"
       d="m 355.53959,650.27726 c -27.4221,-9.3303 -53.7924,-19.2615 -70.00005,-35 23.33335,15.2766 46.66665,26.2174 70.00005,35 z"
       style="opacity:0.28270042;fill:#000000;fill-opacity:1;stroke:none" />
    <ellipse
       id="path5520-3"
       style="fill:#ff794b;fill-opacity:1;stroke:none"
       cx="373.96832"
       cy="494.0867"
       rx="95.214195"
       ry="85" />
    <path
       id="path5522-6"
       d="m 387.90339,503.58226 c 28.0816,52.1969 63.7992,7.7643 51.7629,0.3394 4.8653,-1.1528 -11.0427,41.3963 -51.7629,-0.3394 z"
       style="opacity:0.34599155;fill:#000000;fill-opacity:1;stroke:none" />
    <path
       id="path5524-9"
       d="m 279.20205,491.64184 c -5,-75 110.00004,-120 165.00004,-55 -75,-15 -112.4327,18.0162 -165.00004,55 z"
       style="fill:#ff3300;stroke:none" />
    <path
       id="path5526-7"
       d="m 329.20209,456.64184 c 71.1162,-49.5678 169.3901,-134.6751 115,-20 -51.63,-8.846 -82.191,6.8883 -115,20 z"
       style="fill:#990000;stroke:none" />
    <ellipse
       id="path5528-3"
       style="fill:#ffffff;fill-opacity:1;stroke:none"
       cx="365.92853"
       cy="482.59488"
       rx="20"
       ry="17.5" />
    <ellipse
       id="path5528-5-9"
       style="fill:#ffffff;fill-opacity:1;stroke:none"
       cx="421.68475"
       cy="468.29544"
       rx="17.841843"
       ry="15.611613" />
    <ellipse
       id="path5528-1-0"
       style="fill:#000000;fill-opacity:1;stroke:none"
       cx="368.87909"
       cy="484.52798"
       rx="11.583189"
       ry="10.13529" />
    <ellipse
       id="path5528-1-8-3"
       style="fill:#000000;fill-opacity:1;stroke:none"
       cx="424.09174"
       cy="472.45071"
       rx="10.50411"
       ry="9.1910963" />
    <path
       id="path5573-6"
       d="m 419.20209,546.64186 c 20,10 -50,30 -60,10 -5,-15 -2.6156,-39.5415 60,-10 z"
       style="fill:#ffffff;fill-opacity:1;stroke:none" />
    <path
       id="path5575-6"
       d="m 357.20209,545.64186 c 3.2522,1.2882 6.1765,1.8551 8,0 2.7203,1.6779 5.7042,1.7746 9,0 4.9821,2.4241 9.1646,1.4498 13,-1 3.9854,1.2969 8.2329,3.2491 10,-1 5.4258,1.7592 6.8625,-0.4708 9,-2 3,0 24,8 15,11 -3,-0.8091 -6,-1.9619 -9,0 -3.6106,-0.4526 -7.0867,-0.6589 -9,2 -6.5074,-1.6814 -11.1568,0.3531 -16,2 -4.5347,-0.7424 -9.0306,-1.2142 -13,2 -1.7946,-2.1415 -5.5572,-1.3309 -9,-1 -1.894,-0.6161 -3.3269,-2.4618 -6,-1 -1.1435,-3.1899 -2.2632,-6.4035 -2,-11 z"
       style="fill:#990000;stroke:none" />
    <path
       id="path5624-8"
       d="m 452.53959,671.27726 -4,4 -7,0 z"
       style="fill:#ff3300;stroke:none" />
    <path
       id="path5626-4"
       d="m 408.53959,691.27726 -4,4 5,-1 c -0.5497,-0.7837 -1.0505,-1.6162 -1,-3 z"
       style="fill:#ff3300;stroke:none" />
    <path
       id="path5808-3"
       d="m 454.12339,676.95016 c -0.5641,-0.287 -1.5913,-0.6851 -2.2829,-0.8848 -0.6915,-0.1996 -1.2803,-0.4318 -1.3083,-0.516 -0.028,-0.084 0.1751,-0.1928 0.4516,-0.2414 1.485,-0.2606 10.3869,-1.4837 10.4367,-1.434 0.059,0.059 -3.0209,1.8514 -5.1271,2.983 l -1.1445,0.615 -1.0255,-0.5218 0,0 z"
       style="fill:#9c9c9c;fill-opacity:1;stroke:none" />
    <path
       id="path4642"
       d="m 396.08729,660.78486 c -24.7743,-4.5785 -45.2533,-8.5384 -45.5087,-8.7997 -0.2555,-0.2614 10.3948,-13.2751 23.6674,-28.9193 19.9095,-23.4673 25.7461,-29.777 33.3574,-36.0613 16.818,-13.8859 19.2829,-15.3664 27.6382,-16.6004 l 7.3437,-1.0847 8.3374,5.2065 c 4.5855,2.8635 14.5666,8.6675 22.1801,12.8976 l 13.8428,7.6912 1.5676,17.0187 c 1.9945,21.6538 2.051,21.9481 4.0948,21.2994 1.1708,-0.3716 1.617,-0.081 1.6246,1.0566 0.01,0.8628 0.9414,3.1971 2.0794,5.1872 l 2.069,3.6184 -10.3447,9.1147 c -5.6896,5.0132 -10.9956,9.1202 -11.7911,9.1269 -0.7956,0.01 -8.0504,0.7689 -16.1219,1.6939 -13.6022,1.5588 -14.8145,1.8421 -16.5764,3.8726 -1.0455,1.2049 -2.0167,2.1493 -2.1582,2.0985 -0.1414,-0.051 -20.5271,-3.8383 -45.3014,-8.4168 z"
       style="opacity:1;fill:#b3b3b3;fill-opacity:1;stroke:none;stroke-width:0.625;stroke-miterlimit:4;stroke-dasharray:none;stroke-opacity:0.4822335" />
    <path
       id="path4644"
       d="m 433.21409,706.31686 c 1.8393,-3.0969 3.5259,-4.4356 9.2525,-7.3438 3.8517,-1.9561 8.6233,-5.105 10.6034,-6.9975 1.9801,-1.8926 5.931,-4.7287 8.7798,-6.3024 10.5988,-5.8552 23.5407,-15.2131 31.0775,-22.4712 14.2778,-13.75 14.2929,-13.7607 19.528,-13.782 9.43,-0.038 15.8975,-5.4024 15.1707,-12.5821 -0.2798,-2.7647 -0.01,-3.7556 1.2476,-4.5394 2.6189,-1.6356 1.8999,-2.6487 -3.7898,-5.3404 -4.339,-2.0527 -4.9306,-2.5526 -3.0214,-2.5531 2.828,-8e-4 2.867,-0.4403 0.7084,-7.9886 -0.9161,-3.2034 -1.4487,-5.8243 -1.1836,-5.8243 0.2652,0 3.2484,1.0033 6.6294,2.2296 3.381,1.2263 10.524,3.493 15.8733,5.0371 l 9.7261,2.8074 -5.9939,8.991 c -23.7449,35.6176 -58.3185,62.0783 -98.4896,75.3785 -6.4097,2.1221 -13.1646,4.1308 -15.0109,4.4636 l -3.3568,0.605 2.2493,-3.7874 z"
       style="opacity:1;fill:#b3b3b3;fill-opacity:1;stroke:none;stroke-width:0.625;stroke-miterlimit:4;stroke-dasharray:none;stroke-opacity:0.4822335" />
    <path
       id="path4646"
       d="m 383.87549,705.25236 -7.1867,-9.736 -12.8543,-4.2207 c -7.0698,-2.3214 -12.6955,-4.3795 -12.5015,-4.5735 0.318,-0.3179 40.8749,6.4091 43.3511,7.1905 0.718,0.2265 0.4619,1.3666 -0.8414,3.746 -2.3385,4.2692 -1.5705,7.0303 2.9768,10.7027 l 3.1674,2.5581 8.0571,-2.6843 c 9.4849,-3.1599 9.6752,-3.1825 8.5149,-1.0144 -1.644,3.0717 -1.0491,3.5071 4.9334,3.6105 l 5.827,0.1008 -5.6112,1.1146 c -6.2134,1.2342 -22.7458,3.0165 -27.5585,2.971 -2.9236,-0.028 -3.4686,-0.5457 -10.2741,-9.7653 z"
       style="opacity:1;fill:#b3b3b3;fill-opacity:1;stroke:none;stroke-width:0.625;stroke-miterlimit:4;stroke-dasharray:none;stroke-opacity:0.4822335" />
    <path
       id="path4648"
       d="m 227.71771,625.84846 c -7.67342,-12.3197 -17.40459,-32.0506 -16.33483,-33.1204 0.20634,-0.2063 4.39683,0.3482 9.31221,1.2322 8.43202,1.5164 11.69651,1.4895 18.48176,-0.1529 1.70834,-0.4135 1.76199,-0.1455 1.42115,7.0984 -0.28905,6.1431 -0.0127,8.481 1.50202,12.7077 1.02092,2.8488 2.05902,5.788 2.30688,6.5315 0.29998,0.9 -1.68006,3.259 -5.922,7.0555 l -6.37267,5.7035 -4.39452,-7.0555 z"
       style="opacity:1;fill:#b3b3b3;fill-opacity:1;stroke:none;stroke-width:0.625;stroke-miterlimit:4;stroke-dasharray:none;stroke-opacity:0.4822335" />
    <path
       id="path4670"
       d="m 121.9684,322.09434 547.43369,-21.0419 -127.4337,423.59232 C 609.40209,321.05244 369.40209,341.05244 121.9684,322.09434 Z"
       style="opacity:0.1;fill:#000000;fill-rule:evenodd;stroke:#000000;stroke-width:1px;stroke-linecap:butt;stroke-linejoin:miter;stroke-opacity:1" />
    <path
       id="rect4665"
       d="m 11.485906,208.34474 0,585.17782 765.599584,0 0,-585.17782 -765.599584,0 z m 378.341784,115.3711 a 190.89807,190.89806 0 0 1 190.8965,190.89652 190.89807,190.89806 0 0 1 -190.8965,190.8984 190.89807,190.89806 0 0 1 -190.89842,-190.8984 190.89807,190.89806 0 0 1 190.89842,-190.89652 z"
       style="opacity:1;fill:#ffffff;fill-opacity:1;stroke:none;stroke-width:0.625;stroke-miterlimit:4;stroke-dasharray:none;stroke-opacity:0.4822335" />
    <path
       id="path4672"
       d="m 279.40213,491.05244 c 0,70.00002 69.99996,100.00002 129.99996,80.00002 -70,10 -110,-10 -129.99996,-80.00002 z"
       style="opacity:0.1;fill:#000000;fill-rule:evenodd;stroke:#000000;stroke-width:1px;stroke-linecap:butt;stroke-linejoin:miter;stroke-opacity:1" />
  </g>
</svg>
