<?xml version="1.0" encoding="UTF-8" standalone="no"?>
<!-- Created with Inkscape (http://www.inkscape.org/) -->

<svg
   xmlns:dc="http://purl.org/dc/elements/1.1/"
   xmlns:cc="http://creativecommons.org/ns#"
   xmlns:rdf="http://www.w3.org/1999/02/22-rdf-syntax-ns#"
   xmlns:svg="http://www.w3.org/2000/svg"
   xmlns="http://www.w3.org/2000/svg"
   xmlns:sodipodi="http://sodipodi.sourceforge.net/DTD/sodipodi-0.dtd"
   xmlns:inkscape="http://www.inkscape.org/namespaces/inkscape"
   width="744.09448819"
   height="1052.3622047"
   id="svg2"
   version="1.1"
   inkscape:version="0.48.4 r9939"
   sodipodi:docname="drawing.svg">
  <defs
     id="defs4" />
  <sodipodi:namedview
     id="base"
     pagecolor="#ffffff"
     bordercolor="#666666"
     borderopacity="1.0"
     inkscape:pageopacity="0.0"
     inkscape:pageshadow="2"
     inkscape:zoom="1.4"
     inkscape:cx="-142.6639"
     inkscape:cy="815.75749"
     inkscape:document-units="px"
     inkscape:current-layer="layer1"
     showgrid="false"
     inkscape:window-width="1870"
     inkscape:window-height="1030"
     inkscape:window-x="50"
     inkscape:window-y="0"
     inkscape:window-maximized="1">
    <inkscape:grid
       type="xygrid"
       id="grid2985" />
  </sodipodi:namedview>
  <metadata
     id="metadata7">
    <rdf:RDF>
      <cc:Work
         rdf:about="">
        <dc:format>image/svg+xml</dc:format>
        <dc:type
           rdf:resource="http://purl.org/dc/dcmitype/StillImage" />
        <dc:title />
      </cc:Work>
    </rdf:RDF>
  </metadata>
  <g
     inkscape:label="Layer 1"
     inkscape:groupmode="layer"
     id="layer1">
    <rect
       style="fill:#cccccc;fill-opacity:1;stroke:none"
       id="rect2987"
       width="120"
       height="0"
       x="40"
       y="52.362183" />
    <rect
       style="fill:#cccccc;fill-opacity:1;stroke:none"
       id="rect2991"
       width="40"
       height="120"
       x="320"
       y="172.36218" />
    <rect
       style="fill:#cccccc;fill-opacity:1;stroke:none"
       id="rect2993"
       width="120"
       height="200"
       x="400"
       y="172.36218" />
    <rect
       style="fill:#cccccc;fill-opacity:1;stroke:none"
       id="rect2995"
       width="80"
       height="40"
       x="600"
       y="172.36218" />
    <rect
       style="fill:#cccccc;fill-opacity:1;stroke:none"
       id="rect2989-3"
       width="200"
       height="200"
       x="-190"
       y="162.36218" />
    <path
       style="fill:#d35f5f;stroke:none;stroke-width:1px;stroke-linecap:butt;stroke-linejoin:miter;stroke-opacity:1"
       d="m -170,202.36218 40,50 -60,30 60,10 -30,60 60,-50 10,60 20,-60 60,40 -40,-60 60,-30 -70,0 40,-60 -60,50 -10,-80 -20,70 z"
       id="path3017"
       inkscape:connector-curvature="0"
       sodipodi:nodetypes="ccccccccccccccccc" />
    <path
       style="fill:#ffe680;stroke:none"
       d="m -90,177.36218 5,75 55,-50 -40,55 60,0 -50,25 40,50 -50,-40 -20,55 -5,-55 -55,45 30,-50 -60,-5 60,-30 -35,-40 50,30 z"
       id="path3787"
       inkscape:connector-curvature="0"
       sodipodi:nodetypes="ccccccccccccccccc" />
    <rect
       style="fill:#cccccc;fill-opacity:1;stroke:none"
       id="rect2989-3-7"
       width="200"
       height="200"
       x="-400"
       y="162.36218" />
    <path
       style="fill:#d35f5f;stroke:none"
       d="m -380,202.36218 c -25,20 -23.93627,52.38162 30,50 -31.96913,4.27563 -50,15 -50,30 0,40 36.505,15.24529 60,10 -30.72364,16.54606 -50,55 -30,60 25,5 40,0 60,-50 -3.05528,20 -15,60 10,60 50,0 37.40414,-16.55751 30,-45 40.85753,56.43891 35,35 50,25 15,-10 25,-29.99999 -30,-55 55,35.00001 50,-10 50,-35 -0.36449,-25.19164 -32.95352,-9.07248 -60,-5 65,-29.99999 50,-35 30,-55 -24.47415,-17.89504 -51.85578,7.42665 -55,35 -3.33333,-26.66667 30,-65 -15,-65 -40,0 -38.13177,14.34304 -25,55 -17.31178,-12.94424 -30,-35 -55,-15 z"
       id="path3017-3"
       inkscape:connector-curvature="0"
       sodipodi:nodetypes="ccccccccccccccccc" />
    <path
       style="fill:#ffe680;stroke:none"
       d="m -300,177.36218 5,75 55,-50 -40,55 60,0 -50,25 40,50 -50,-40 -20,55 -5,-55 -55,45 30,-50 -60,-5 60,-30 -35,-40 50,30 z"
       id="path3787-1"
       inkscape:connector-curvature="0"
       sodipodi:nodetypes="ccccccccccccccccc" />
    <rect
       style="fill:#cccccc;fill-opacity:1;stroke:none"
       id="rect2989-3-7-0"
       width="200"
       height="200"
       x="-610"
       y="162.36218" />
    <path
       style="fill:#333333;stroke:none"
       d="m -605,182.36218 c -5,10 -10,65 15,70 -20,5 -20,15 -20,30 0,40 6.505,35.24529 30,30 -30.72364,16.54606 -20,35 0,40 25,5 50,10 55,-30 -3.05528,20 -10,40 15,40 50,0 52.40414,3.44249 45,-25 20,20.00001 35,25 50,20 5,-20 10,-44.99999 -45,-70 55,35.00001 50,-10 50,-35 -0.36449,-25.19164 -2.95352,-19.07248 -30,-15 40,-20 36.5289,-41.65589 15,-60 -23.07734,-19.66348 -51.85578,7.42665 -55,35 -3.33333,-26.66667 45,-50 -30,-50 -40,0 -45,10 -45,30 -17.31178,-12.94424 -35.68218,-38.63564 -50,-10 z"
       id="path3017-3-1"
       inkscape:connector-curvature="0"
       sodipodi:nodetypes="scccccccccccscscs" />
    <path
       style="fill:#cccccc;stroke:none"
       d="m -575,257.36218 c -39.8199,7.6695 -29.50363,21.94661 -20,40 -10.21646,-24.12987 3.38155,-31.97107 20,-40 z"
       id="path3837"
       inkscape:connector-curvature="0"
       sodipodi:nodetypes="ccc" />
    <path
       style="fill:#cccccc;stroke:none"
       d="m -561.69241,197.73342 c -38.3194,-41.96027 -37.98919,-5.77096 -37.88068,23.77086 0.68076,-42.86555 15.91988,-44.94183 37.88068,-23.77086 z"
       id="path3837-6"
       inkscape:connector-curvature="0"
       sodipodi:nodetypes="ccc" />
    <path
       style="fill:#cccccc;stroke:none"
       d="m -420,212.36218 c -3.52072,-40.39864 -18.78589,-31.61026 -37.72337,-24.01974 25.05507,-7.67269 31.45165,6.66168 37.72337,24.01974 z"
       id="path3837-7"
       inkscape:connector-curvature="0"
       sodipodi:nodetypes="ccc" />
    <path
       style="fill:#cccccc;stroke:none"
       d="m -455,337.36218 c 44.75924,35.00931 40,5 25,-25 15,45 0.17349,42.22737 -25,25 z"
       id="path3837-6-6"
       inkscape:connector-curvature="0"
       sodipodi:nodetypes="ccc" />
    <path
       style="fill:#cccccc;stroke:none"
       d="m -485,202.36218 c 15,-45 -25,-35 -45,-30 25,0 45,-10 45,30 z"
       id="path3837-5"
       inkscape:connector-curvature="0"
       sodipodi:nodetypes="ccc" />
    <path
       style="fill:#cccccc;stroke:none"
       d="m -520,332.36218 c -13.38367,31.79954 20.1462,25.34833 36.91113,22.12273 -20.83345,-0.41956 -37.69655,6.3673 -36.91113,-22.12273 z"
       id="path3837-5-2"
       inkscape:connector-curvature="0"
       sodipodi:nodetypes="ccc" />
    <path
       style="fill:#cccccc;stroke:none"
       d="m -580.43143,314.59133 c -6.79964,39.97763 10.19061,35.33086 30.43143,32.77085 -26.18072,1.09399 -28.74843,-14.3914 -30.43143,-32.77085 z"
       id="path3837-7-3"
       inkscape:connector-curvature="0"
       sodipodi:nodetypes="ccc" />
    <path
       style="fill:#cccccc;stroke:none"
       d="m -450.86953,289.07129 c 39.00787,11.08296 36.22568,-6.31016 35.86953,-26.70911 -1.74361,26.14548 -17.41586,27.02354 -35.86953,26.70911 z"
       id="path3837-7-2"
       inkscape:connector-curvature="0"
       sodipodi:nodetypes="ccc" />
    <path
       style="fill:#cccccc;stroke:none"
       d="m -519.64184,212.32832 c -40.1068,-5.99081 -35.11783,10.90212 -32.14953,31.0871 -1.62255,-26.15328 13.80782,-29.03322 32.14953,-31.0871 z"
       id="path3837-7-1"
       inkscape:connector-curvature="0"
       sodipodi:nodetypes="ccc" />
    <path
       style="fill:#cccccc;stroke:none"
       d="m -460.84209,261.27113 c 8.32119,-39.68883 -8.8341,-35.69421 -29.15791,-33.90895 26.2034,-0.0935 28.17794,15.47864 29.15791,33.90895 z"
       id="path3837-7-0"
       inkscape:connector-curvature="0"
       sodipodi:nodetypes="ccc" />
    <path
       style="fill:#cccccc;stroke:none"
       d="m -544.49347,270.32122 c -13.91786,38.08856 3.63261,36.59129 24.00264,37.73425 -25.94683,-3.6591 -25.6715,-19.35351 -24.00264,-37.73425 z"
       id="path3837-7-6"
       inkscape:connector-curvature="0"
       sodipodi:nodetypes="ccc" />
    <path
       style="fill:#cccccc;stroke:none"
       d="m -496.15245,319.44839 c 40.27589,4.72211 34.75628,-12.00496 31.15245,-32.08621 2.4471,26.08905 -12.88469,29.45452 -31.15245,32.08621 z"
       id="path3837-7-02"
       inkscape:connector-curvature="0"
       sodipodi:nodetypes="ccc" />
    <rect
       style="fill:#666666;fill-opacity:1;stroke:none"
       id="rect4000"
       width="4.4642859"
       height="45.357143"
       x="337.14285"
       y="172.71933"
       ry="3.3114729" />
    <rect
       style="fill:#666666;fill-opacity:1;stroke:none"
       id="rect4000-4"
       width="4.4642859"
       height="45.357143"
       x="337.41071"
       y="247.00504"
       ry="3.3114729" />
    <path
       style="fill:#008000;stroke:none"
       d="m 329.10714,242.18361 c 6.88092,-0.24965 13.82477,0.17421 19.28572,0.35714 l 0.35715,19.10715 -4.28572,0.71428 -0.17857,-10 c -11.40715,0.0251 -15.31116,-0.0348 -15.17858,-10.17857 z"
       id="path4020"
       inkscape:connector-curvature="0"
       sodipodi:nodetypes="cccccc" />
    <path
       sodipodi:type="arc"
       style="fill:#d38d5f;fill-opacity:1;stroke:none"
       id="path4042"
       sodipodi:cx="339.91071"
       sodipodi:cy="220.26396"
       sodipodi:rx="6.875"
       sodipodi:ry="6.7410712"
       d="m 346.78571,220.26396 a 6.875,6.7410712 0 1 1 -13.75,0 6.875,6.7410712 0 1 1 13.75,0 z"
       transform="translate(-0.53571429,-1.4285714)" />
    <path
       style="fill:#333333;stroke:none"
       d="m 324.01786,203.07647 1.69643,1.875 c 8.06905,-4.31157 16.61084,-5.85419 26.33928,-0.44643 l 1.51786,-1.42857 c -10.56774,-6.73554 -20.1644,-4.34298 -29.55357,0 z"
       id="path4046"
       inkscape:connector-curvature="0"
       sodipodi:nodetypes="ccccc" />
    <path
       style="fill:#d38d5f;stroke:none;stroke-width:1px;stroke-linecap:butt;stroke-linejoin:miter;stroke-opacity:1"
       d="m 324.46429,205.93361 c -4.22389,-6.9134 8.28387,-7.08387 2.67857,0.71429 -4.41943,5.17857 -4.65263,14.10714 -2.41071,17.76785 l -2.05358,2.14286 c -1.08954,-1.29641 -3.16515,-13.1878 1.78572,-20.625 z"
       id="path4022"
       inkscape:connector-curvature="0"
       sodipodi:nodetypes="ccccc" />
    <path
       style="fill:#d38d5f;stroke:none"
       d="m 353.7381,205.96976 c 4.08201,-6.9134 -8.00561,-7.08387 -2.58859,0.71429 4.27098,5.17857 4.49634,14.10714 2.32973,17.76785 l 1.9846,2.14286 c 1.05294,-1.29641 3.05883,-13.1878 -1.72574,-20.625 z"
       id="path4022-9"
       inkscape:connector-curvature="0"
       sodipodi:nodetypes="ccccc" />
    <path
       style="fill:#ff9955;stroke:none;stroke-width:1px;stroke-linecap:butt;stroke-linejoin:miter;stroke-opacity:1"
       d="m 324.375,222.18361 -3.48214,3.48214 c 2.31752,2.47114 6.14171,5.72943 9.28571,5.89286 L 328.75,242.89789 c -0.006,9.03445 20.84759,6.00924 20.17857,0.53572 l -1.69643,-11.60714 c 6.50798,-0.1964 8.21154,-3.27546 10.08929,-6.25 l -3.92857,-2.85714 c -1.93055,3.34962 -4.64984,4.64851 -7.76786,4.91071 L 332.5,227.36218 c -3.95663,0.008 -6.227,-2.26818 -8.125,-5.17857 z"
       id="path4044"
       inkscape:connector-curvature="0"
       sodipodi:nodetypes="ccccccccccc" />
  </g>
</svg>
